<svg width="200" height="200" viewBox="0 0 200 200" fill="none" xmlns="http://www.w3.org/2000/svg">
<path d="M47.1628 31.3208C47.1628 25.9021 51.1798 20.3774 56.6007 20.3774L76.7978 20H124.176L141.919 20.3774C147.34 20.3774 153.245 26.2795 153.245 31.6981L154 52.0755L153.622 133.585L152.49 166.038C152.49 171.456 147.582 176.981 143.052 178.491C138.522 180 125.497 179.623 125.497 179.623L84.1594 180C84.1594 180 61.3196 180 56.6007 178.868C51.8817 177.736 46.974 172.264 46.4077 167.925C45.8414 163.585 46.0302 146.226 46.0302 146.226L46.0302 96.4151L46.7852 46.6038L47.1628 31.3208Z" fill="#1F1F1F"/>
</svg>
